<mxfile host="app.diagrams.net" modified="2024-03-08T02:30:17.701Z" agent="Mozilla/5.0 (Windows NT 10.0; Win64; x64) AppleWebKit/537.36 (KHTML, like Gecko) Chrome/122.0.0.0 Safari/537.36" etag="fAy8jhs-K_2ppqJb9NOJ" version="24.0.2" type="device">
  <diagram name="페이지-1" id="wm0R7eixIDcR_W4k7RPy">
    <mxGraphModel dx="1434" dy="780" grid="1" gridSize="10" guides="1" tooltips="1" connect="1" arrows="1" fold="1" page="1" pageScale="1" pageWidth="827" pageHeight="1169" math="0" shadow="0">
      <root>
        <mxCell id="0" />
        <mxCell id="1" parent="0" />
        <mxCell id="DQVwM1sumAtjKsFZfDkg-2" value="input a, b, c" style="shape=parallelogram;perimeter=parallelogramPerimeter;whiteSpace=wrap;html=1;fixedSize=1;" vertex="1" parent="1">
          <mxGeometry x="90" y="40" width="170" height="60" as="geometry" />
        </mxCell>
        <mxCell id="DQVwM1sumAtjKsFZfDkg-3" value="" style="endArrow=classic;html=1;rounded=0;" edge="1" parent="1">
          <mxGeometry width="50" height="50" relative="1" as="geometry">
            <mxPoint x="174.5" y="100" as="sourcePoint" />
            <mxPoint x="174.5" y="150" as="targetPoint" />
          </mxGeometry>
        </mxCell>
        <mxCell id="DQVwM1sumAtjKsFZfDkg-4" value="max = a" style="rounded=1;whiteSpace=wrap;html=1;" vertex="1" parent="1">
          <mxGeometry x="91" y="150" width="170" height="60" as="geometry" />
        </mxCell>
        <mxCell id="DQVwM1sumAtjKsFZfDkg-5" value="" style="endArrow=classic;html=1;rounded=0;" edge="1" parent="1">
          <mxGeometry width="50" height="50" relative="1" as="geometry">
            <mxPoint x="174.5" y="210" as="sourcePoint" />
            <mxPoint x="174.5" y="260" as="targetPoint" />
          </mxGeometry>
        </mxCell>
        <mxCell id="DQVwM1sumAtjKsFZfDkg-6" value="if b &amp;gt; max" style="rhombus;whiteSpace=wrap;html=1;" vertex="1" parent="1">
          <mxGeometry x="90" y="260" width="170" height="80" as="geometry" />
        </mxCell>
        <mxCell id="DQVwM1sumAtjKsFZfDkg-7" value="" style="endArrow=classic;html=1;rounded=0;" edge="1" parent="1">
          <mxGeometry width="50" height="50" relative="1" as="geometry">
            <mxPoint x="260" y="299.5" as="sourcePoint" />
            <mxPoint x="370" y="300" as="targetPoint" />
          </mxGeometry>
        </mxCell>
        <mxCell id="DQVwM1sumAtjKsFZfDkg-8" value="yes" style="edgeLabel;html=1;align=center;verticalAlign=middle;resizable=0;points=[];" vertex="1" connectable="0" parent="DQVwM1sumAtjKsFZfDkg-7">
          <mxGeometry x="-0.2724" y="-4" relative="1" as="geometry">
            <mxPoint as="offset" />
          </mxGeometry>
        </mxCell>
        <mxCell id="DQVwM1sumAtjKsFZfDkg-9" value="max = b" style="rounded=1;whiteSpace=wrap;html=1;" vertex="1" parent="1">
          <mxGeometry x="370" y="270" width="170" height="60" as="geometry" />
        </mxCell>
        <mxCell id="DQVwM1sumAtjKsFZfDkg-10" value="" style="endArrow=none;html=1;rounded=0;" edge="1" parent="1">
          <mxGeometry width="50" height="50" relative="1" as="geometry">
            <mxPoint x="460" y="400" as="sourcePoint" />
            <mxPoint x="460" y="330" as="targetPoint" />
          </mxGeometry>
        </mxCell>
        <mxCell id="DQVwM1sumAtjKsFZfDkg-11" value="" style="endArrow=none;html=1;rounded=0;" edge="1" parent="1">
          <mxGeometry width="50" height="50" relative="1" as="geometry">
            <mxPoint x="180" y="400" as="sourcePoint" />
            <mxPoint x="460" y="400" as="targetPoint" />
          </mxGeometry>
        </mxCell>
        <mxCell id="DQVwM1sumAtjKsFZfDkg-12" value="" style="endArrow=classic;html=1;rounded=0;" edge="1" parent="1">
          <mxGeometry width="50" height="50" relative="1" as="geometry">
            <mxPoint x="175.5" y="340" as="sourcePoint" />
            <mxPoint x="176" y="420" as="targetPoint" />
          </mxGeometry>
        </mxCell>
        <mxCell id="DQVwM1sumAtjKsFZfDkg-13" value="no&lt;div&gt;&lt;br&gt;&lt;/div&gt;" style="edgeLabel;html=1;align=center;verticalAlign=middle;resizable=0;points=[];" vertex="1" connectable="0" parent="DQVwM1sumAtjKsFZfDkg-12">
          <mxGeometry x="-0.2" y="-1" relative="1" as="geometry">
            <mxPoint as="offset" />
          </mxGeometry>
        </mxCell>
        <mxCell id="DQVwM1sumAtjKsFZfDkg-14" value="if c &amp;gt; max" style="rhombus;whiteSpace=wrap;html=1;" vertex="1" parent="1">
          <mxGeometry x="91" y="420" width="170" height="80" as="geometry" />
        </mxCell>
        <mxCell id="DQVwM1sumAtjKsFZfDkg-15" value="" style="endArrow=classic;html=1;rounded=0;" edge="1" parent="1">
          <mxGeometry width="50" height="50" relative="1" as="geometry">
            <mxPoint x="260" y="459.5" as="sourcePoint" />
            <mxPoint x="370" y="460" as="targetPoint" />
          </mxGeometry>
        </mxCell>
        <mxCell id="DQVwM1sumAtjKsFZfDkg-16" value="yes" style="edgeLabel;html=1;align=center;verticalAlign=middle;resizable=0;points=[];" vertex="1" connectable="0" parent="DQVwM1sumAtjKsFZfDkg-15">
          <mxGeometry x="-0.2724" y="-4" relative="1" as="geometry">
            <mxPoint as="offset" />
          </mxGeometry>
        </mxCell>
        <mxCell id="DQVwM1sumAtjKsFZfDkg-17" value="max = c" style="rounded=1;whiteSpace=wrap;html=1;" vertex="1" parent="1">
          <mxGeometry x="370" y="430" width="170" height="60" as="geometry" />
        </mxCell>
        <mxCell id="DQVwM1sumAtjKsFZfDkg-18" value="" style="endArrow=none;html=1;rounded=0;" edge="1" parent="1">
          <mxGeometry width="50" height="50" relative="1" as="geometry">
            <mxPoint x="460" y="560" as="sourcePoint" />
            <mxPoint x="460" y="490" as="targetPoint" />
          </mxGeometry>
        </mxCell>
        <mxCell id="DQVwM1sumAtjKsFZfDkg-19" value="" style="endArrow=none;html=1;rounded=0;" edge="1" parent="1">
          <mxGeometry width="50" height="50" relative="1" as="geometry">
            <mxPoint x="180" y="560" as="sourcePoint" />
            <mxPoint x="460" y="560" as="targetPoint" />
          </mxGeometry>
        </mxCell>
        <mxCell id="DQVwM1sumAtjKsFZfDkg-20" value="" style="endArrow=classic;html=1;rounded=0;" edge="1" parent="1">
          <mxGeometry width="50" height="50" relative="1" as="geometry">
            <mxPoint x="175.5" y="500" as="sourcePoint" />
            <mxPoint x="176" y="580" as="targetPoint" />
          </mxGeometry>
        </mxCell>
        <mxCell id="DQVwM1sumAtjKsFZfDkg-21" value="no&lt;div&gt;&lt;br&gt;&lt;/div&gt;" style="edgeLabel;html=1;align=center;verticalAlign=middle;resizable=0;points=[];" vertex="1" connectable="0" parent="DQVwM1sumAtjKsFZfDkg-20">
          <mxGeometry x="-0.2" y="-1" relative="1" as="geometry">
            <mxPoint as="offset" />
          </mxGeometry>
        </mxCell>
        <mxCell id="DQVwM1sumAtjKsFZfDkg-22" value="output max" style="shape=parallelogram;perimeter=parallelogramPerimeter;whiteSpace=wrap;html=1;fixedSize=1;" vertex="1" parent="1">
          <mxGeometry x="80" y="585" width="170" height="60" as="geometry" />
        </mxCell>
      </root>
    </mxGraphModel>
  </diagram>
</mxfile>
